<?xml version="1.0" standalone="no"?>
<!DOCTYPE svg PUBLIC "-//W3C//DTD SVG 20010904//EN"
 "http://www.w3.org/TR/2001/REC-SVG-20010904/DTD/svg10.dtd">
<svg version="1.0" xmlns="http://www.w3.org/2000/svg"
 width="1280.000000pt" height="1201.000000pt" viewBox="0 0 1280.000000 1201.000000"
 preserveAspectRatio="xMidYMid meet">
<metadata>
Created by potrace 1.15, written by Peter Selinger 2001-2017
</metadata>
<g transform="translate(0.000000,1201.000000) scale(0.100000,-0.100000)"
fill="#000000" stroke="none">
<path d="M10885 12004 c-516 -51 -1012 -147 -1372 -265 -1317 -430 -2970
-1553 -3779 -2568 -174 -218 -290 -396 -409 -625 -414 -795 -808 -2003 -1110
-3401 -60 -277 -71 -365 -58 -446 6 -35 9 -65 8 -67 -13 -15 -49 34 -97 130
-67 133 -142 223 -220 262 -50 25 -59 26 -228 26 -123 0 -192 -4 -230 -15 -66
-17 -47 -37 -182 190 -238 402 -522 801 -762 1069 -45 50 -282 291 -527 536
-246 245 -461 466 -478 492 -37 55 -71 70 -101 43 -22 -20 -28 -94 -11 -137
14 -37 69 -85 151 -132 41 -24 116 -79 165 -122 164 -142 1018 -1003 1085
-1094 92 -125 331 -488 459 -698 l112 -183 -25 -29 c-13 -16 -30 -46 -36 -65
-7 -20 -16 -35 -20 -33 -4 2 -66 53 -137 115 -326 284 -674 551 -1003 769
-331 219 -486 304 -945 519 -567 266 -916 443 -1004 511 -25 19 -56 34 -71 34
-56 0 -76 -63 -45 -138 35 -82 84 -110 251 -146 175 -37 321 -100 1009 -434
806 -392 807 -392 1114 -622 174 -130 487 -378 690 -549 l134 -112 -2 -117
c-4 -194 32 -306 129 -403 102 -102 259 -193 397 -229 43 -11 103 -30 133 -42
71 -28 310 -146 310 -154 0 -3 -24 -49 -54 -102 -30 -54 -67 -128 -82 -165
-27 -65 -36 -75 -184 -206 -257 -229 -378 -367 -368 -418 2 -9 40 27 98 93
119 136 378 399 386 392 3 -4 -18 -68 -47 -145 -81 -216 -100 -283 -106 -360
-7 -88 8 -97 27 -16 27 121 121 436 149 497 32 71 64 98 288 238 l112 70 58
-40 c32 -22 96 -69 141 -106 46 -36 110 -85 143 -107 32 -23 59 -43 59 -45 0
-2 -23 -32 -51 -66 -100 -125 -348 -556 -388 -675 -22 -65 -27 -103 -13 -103
4 0 32 57 62 128 91 214 175 371 259 483 43 59 84 109 89 113 6 4 -9 -37 -34
-89 -94 -203 -142 -344 -185 -552 -22 -105 -22 -140 1 -117 5 5 28 83 51 174
74 297 192 617 244 660 14 12 62 -20 300 -198 55 -42 101 -76 101 -76 1 -1
-10 -62 -25 -136 l-26 -135 -99 -165 c-200 -332 -321 -599 -287 -633 7 -7 12
-5 17 9 19 53 153 352 200 446 42 86 147 258 157 258 1 0 0 -80 -1 -177 -4
-214 13 -512 33 -581 8 -27 23 -56 32 -63 15 -13 16 -11 9 21 -15 78 -47 352
-53 450 -6 116 20 387 40 426 7 12 40 56 75 98 l63 77 76 -63 c115 -95 324
-279 452 -397 113 -106 175 -182 344 -424 208 -296 318 -386 455 -373 118 11
201 66 231 155 43 131 -44 349 -232 579 l-60 74 39 -20 c98 -51 305 -201 447
-325 419 -365 860 -895 1327 -1597 183 -276 268 -379 394 -479 312 -248 620
-208 1006 131 84 73 198 194 437 460 142 159 221 216 378 278 114 44 295 84
465 101 157 16 515 16 875 0 395 -18 581 -13 652 18 169 74 186 250 43 463
-84 127 -185 221 -312 292 -36 20 -203 81 -393 144 -378 126 -494 170 -655
252 -129 66 -219 134 -265 198 -25 37 -30 53 -30 105 0 84 28 124 169 236 129
103 284 260 343 346 56 83 107 187 135 275 20 64 23 96 23 215 0 168 -19 245
-95 400 -96 193 -310 437 -527 599 -51 38 -93 71 -93 73 0 2 19 40 41 86 80
158 109 275 109 435 0 59 -7 135 -15 169 -32 135 -115 274 -223 375 -55 51
-165 130 -194 141 -19 6 -17 7 137 72 408 171 711 359 853 528 70 84 102 159
102 242 0 127 -49 199 -229 337 -356 274 -562 612 -621 1016 -8 51 -11 146 -8
250 l5 167 208 460 c114 253 244 550 290 660 370 901 534 1653 425 1962 -62
176 -202 281 -445 333 -79 17 -142 22 -305 25 -113 1 -223 1 -245 -1z m-6594
-8186 c53 -30 73 -48 51 -48 -13 0 -170 -107 -224 -152 -27 -22 -48 -37 -48
-33 0 16 146 265 156 265 3 0 32 -15 65 -32z m1038 -755 c2 -1 -14 -24 -35
-50 -56 -70 -56 -71 -50 -43 3 14 10 51 17 83 l11 59 26 -24 c15 -12 29 -24
31 -25z"/>
</g>
</svg>
